<svg width="23" height="24" viewBox="0 0 23 24" fill="none" xmlns="http://www.w3.org/2000/svg">
<path fill-rule="evenodd" clip-rule="evenodd" d="M11.1616 1.69629C11.1616 1.28208 11.4974 0.946289 11.9116 0.946289C18.0365 0.946289 23 5.91146 23 12.0347C23 18.1579 18.0365 23.1231 11.9116 23.1231C11.4974 23.1231 11.1616 22.7873 11.1616 22.3731C11.1616 21.9589 11.4974 21.6231 11.9116 21.6231C17.2079 21.6231 21.5 17.3296 21.5 12.0347C21.5 6.73974 17.2079 2.44629 11.9116 2.44629C11.4974 2.44629 11.1616 2.1105 11.1616 1.69629ZM9.51975 1.97142C9.65329 2.36352 9.44369 2.78963 9.05159 2.92317C7.89901 3.31571 6.81887 3.89291 5.88125 4.6193C5.5538 4.87298 5.08271 4.81318 4.82903 4.48574C4.57536 4.15829 4.63515 3.6872 4.9626 3.43352C6.03539 2.60241 7.26342 1.94757 8.56801 1.50326C8.9601 1.36972 9.38622 1.57932 9.51975 1.97142ZM3.30922 6.16737C3.66097 6.3861 3.7688 6.84857 3.55007 7.20032C2.93941 8.18234 2.51573 9.25746 2.31019 10.359C2.23421 10.7662 1.84253 11.0347 1.43534 10.9587C1.02816 10.8827 0.759663 10.4911 0.835642 10.0839C1.07686 8.79111 1.57148 7.5416 2.27626 6.40822C2.495 6.05647 2.95746 5.94864 3.30922 6.16737ZM1.43535 13.1107C1.84254 13.0347 2.23421 13.3032 2.31019 13.7104C2.51573 14.812 2.93941 15.887 3.55007 16.8691C3.7688 17.2208 3.66096 17.6833 3.30921 17.902C2.95746 18.1207 2.49499 18.0129 2.27626 17.6611C1.57149 16.5278 1.07686 15.2783 0.83564 13.9855C0.759665 13.5783 1.02816 13.1867 1.43535 13.1107ZM4.83235 19.5795C5.08837 19.2538 5.55988 19.1974 5.8855 19.4535C6.81776 20.1865 7.89518 20.7524 9.05158 21.1462C9.44368 21.2798 9.65329 21.7059 9.51976 22.098C9.38623 22.4901 8.96012 22.6997 8.56802 22.5661C7.26725 22.1232 6.0365 21.4803 4.95835 20.6326C4.63274 20.3766 4.57632 19.9051 4.83235 19.5795ZM10.3529 9.70835C10.3529 8.83008 11.0549 8.13221 11.9036 8.13221C12.7522 8.13221 13.4543 8.83009 13.4543 9.70835C13.4543 10.5866 12.7522 11.2845 11.9036 11.2845C11.0549 11.2845 10.3529 10.5866 10.3529 9.70835ZM11.9036 6.63221C10.2109 6.63221 8.85287 8.01724 8.85287 9.70835C8.85287 11.3994 10.2109 12.7845 11.9036 12.7845C13.5962 12.7845 14.9543 11.3994 14.9543 9.70835C14.9543 8.01723 13.5961 6.63221 11.9036 6.63221ZM8.32166 17.2013C10.1826 15.2278 13.6375 15.1542 15.4921 17.1916C15.7709 17.498 16.2453 17.5202 16.5516 17.2414C16.8579 16.9626 16.8802 16.4882 16.6013 16.1819C14.1243 13.4607 9.65485 13.601 7.23032 16.1722C6.94615 16.4736 6.96009 16.9483 7.26145 17.2324C7.56282 17.5166 8.03749 17.5027 8.32166 17.2013Z" fill="#868B90"/>
</svg>
