<svg width="21" height="21" viewBox="0 0 21 21" fill="none" xmlns="http://www.w3.org/2000/svg">
<path fill-rule="evenodd" clip-rule="evenodd" d="M7.91255 1.24794L5.40203 3.75846H15.6004L13.0899 1.24794C12.8066 0.964647 12.8066 0.495755 13.0899 0.212467C13.3732 -0.0708222 13.8421 -0.0708222 14.1254 0.212467L17.6714 3.75846L18.1012 3.75846C19.039 3.75846 21.0024 3.75846 21.0024 6.44482C21.0024 7.46076 20.7973 8.13479 20.3479 8.57437C20.0849 8.83741 19.7747 8.97734 19.4486 9.05112L17.8765 17.2391C17.4955 19.2221 16.8606 21 13.3243 21H7.43389C3.93674 21 3.15525 18.9193 2.85242 17.1121L1.53822 9.04981C1.21859 8.97452 0.913999 8.83388 0.654495 8.57437C0.20514 8.13479 0 7.45099 0 6.44482C0 3.75846 1.96348 3.75846 2.90127 3.75846H3.33109L3.33109 3.75846L6.87708 0.212467C7.16037 -0.0708222 7.62927 -0.0708222 7.91255 0.212467C8.19584 0.495755 8.19584 0.964647 7.91255 1.24794ZM3.03559 9.13118L4.29817 16.8679C4.58146 18.5969 5.16758 19.5347 7.43389 19.5347H13.3243C15.8349 19.5347 16.1182 18.6555 16.4405 16.9558L17.9428 9.13118H3.03559ZM2.90127 7.6659H18.3259C18.7654 7.67566 19.1757 7.67566 19.3125 7.5389C19.3809 7.47052 19.5274 7.23608 19.5274 6.44482C19.5274 5.34097 19.2539 5.22375 18.0914 5.22375H2.90127C1.73881 5.22375 1.46529 5.34097 1.46529 6.44482C1.46529 7.23608 1.62158 7.47052 1.6802 7.5389C1.81696 7.6659 2.237 7.6659 2.66682 7.6659H2.90127ZM7.58043 15.9203C7.58043 16.3209 7.91256 16.653 8.31307 16.653C8.71358 16.653 9.04571 16.3306 9.04571 15.9203V12.4525C9.04571 12.052 8.71358 11.7199 8.31307 11.7199C7.91256 11.7199 7.58043 12.052 7.58043 12.4525V15.9203ZM12.8066 16.653C12.4061 16.653 12.0739 16.3209 12.0739 15.9203V12.4525C12.0739 12.052 12.4061 11.7199 12.8066 11.7199C13.2071 11.7199 13.5392 12.052 13.5392 12.4525V15.9203C13.5392 16.3306 13.2071 16.653 12.8066 16.653Z" fill="#868B90"/>
</svg>
