<svg width="22" height="22" viewBox="0 0 22 22" fill="none" xmlns="http://www.w3.org/2000/svg">
<path d="M11.92 1.2325L18.43 4.7425C19.19 5.1525 19.19 6.3225 18.43 6.7325L11.92 10.2425C11.34 10.5525 10.66 10.5525 10.08 10.2425L3.57 6.7325C2.81 6.3225 2.81 5.1525 3.57 4.7425L10.08 1.2325C10.66 0.9225 11.34 0.9225 11.92 1.2325Z" stroke="gray" stroke-width="1.5" stroke-linecap="round" stroke-linejoin="round"/>
<path d="M2.61 9.10283L8.66 12.1328C9.41 12.5128 9.89 13.2828 9.89 14.1228V19.8428C9.89 20.6728 9.02 21.2028 8.28 20.8328L2.23 17.8028C1.48 17.4228 1 16.6528 1 15.8128V10.0928C1 9.26283 1.87 8.73283 2.61 9.10283Z" stroke="gray" stroke-width="1.5" stroke-linecap="round" stroke-linejoin="round"/>
<path d="M19.3899 9.10283L13.3399 12.1328C12.5899 12.5128 12.1099 13.2828 12.1099 14.1228V19.8428C12.1099 20.6728 12.9799 21.2028 13.7199 20.8328L19.7699 17.8028C20.5199 17.4228 20.9999 16.6528 20.9999 15.8128V10.0928C20.9999 9.26283 20.1299 8.73283 19.3899 9.10283Z" stroke="gray" stroke-width="1.5" stroke-linecap="round" stroke-linejoin="round"/>
</svg>
