<svg width="22" height="22" viewBox="0 0 22 22" fill="none" xmlns="http://www.w3.org/2000/svg">
<path d="M13.9805 6.01562C13.9805 6.01562 14.4805 6.51562 14.9805 7.51562C14.9805 7.51562 16.5687 5.01562 17.9805 4.51562" stroke="#868B90" stroke-width="1.5" stroke-linecap="round" stroke-linejoin="round"/>
<path d="M8.99485 1.02141C6.49638 0.915617 4.56612 1.20344 4.56612 1.20344C3.34727 1.29059 1.01146 1.97391 1.01148 5.9646C1.0115 9.9214 0.98564 14.7993 1.01148 16.744C1.01148 17.932 1.7471 20.7034 4.29326 20.8519C7.3881 21.0324 12.9627 21.0708 15.5205 20.8519C16.2051 20.8133 18.4846 20.2758 18.7731 17.7957C19.072 15.2264 19.0125 13.4407 19.0125 13.0157" stroke="#868B90" stroke-width="1.5" stroke-linecap="round" stroke-linejoin="round"/>
<path d="M20.9999 6.01562C20.9999 8.77706 18.7591 11.0156 15.995 11.0156C13.231 11.0156 10.9902 8.77706 10.9902 6.01562C10.9902 3.2542 13.231 1.01562 15.995 1.01562C18.7591 1.01562 20.9999 3.2542 20.9999 6.01562Z" stroke="#868B90" stroke-width="1.5" stroke-linecap="round"/>
<path d="M5.98047 12.0156H9.9805" stroke="#868B90" stroke-width="1.5" stroke-linecap="round"/>
<path d="M5.98047 16.0156H13.9805" stroke="#868B90" stroke-width="1.5" stroke-linecap="round"/>
</svg>
